<mxfile host="app.diagrams.net" agent="Mozilla/5.0 (Windows NT 10.0; Win64; x64) AppleWebKit/537.36 (KHTML, like Gecko) Chrome/136.0.0.0 Safari/537.36" version="26.2.14">
  <diagram name="Page-1" id="rXWU9gMarxTyq7Ej_erE">
    <mxGraphModel dx="1426" dy="751" grid="1" gridSize="10" guides="1" tooltips="1" connect="1" arrows="1" fold="1" page="1" pageScale="1" pageWidth="827" pageHeight="1169" math="0" shadow="0">
      <root>
        <mxCell id="0" />
        <mxCell id="1" parent="0" />
        <mxCell id="B0bD8EdGupErsyKpo4uQ-46" value="6" style="rounded=0;whiteSpace=wrap;html=1;fillColor=#dae8fc;strokeColor=#6c8ebf;fontFamily=latex;fontSource=http%3A%2F%2Fsourceforge.net%2Fprojects%2Fcm-unicode%2Ffiles%2FOldFiles%2Fcm-unicode-fix-0.6.3.tar.bz2%2Fdownload;" vertex="1" parent="1">
          <mxGeometry x="320" y="430" width="20" height="20" as="geometry" />
        </mxCell>
        <mxCell id="B0bD8EdGupErsyKpo4uQ-48" value="3" style="rounded=0;whiteSpace=wrap;html=1;fillColor=#dae8fc;strokeColor=#6c8ebf;fontFamily=latex;fontSource=http%3A%2F%2Fsourceforge.net%2Fprojects%2Fcm-unicode%2Ffiles%2FOldFiles%2Fcm-unicode-fix-0.6.3.tar.bz2%2Fdownload;" vertex="1" parent="1">
          <mxGeometry x="340" y="430" width="20" height="20" as="geometry" />
        </mxCell>
        <mxCell id="B0bD8EdGupErsyKpo4uQ-49" value="23 x 4" style="rounded=0;whiteSpace=wrap;html=1;fillColor=#dae8fc;strokeColor=#6c8ebf;fontFamily=latex;fontSource=http%3A%2F%2Fsourceforge.net%2Fprojects%2Fcm-unicode%2Ffiles%2FOldFiles%2Fcm-unicode-fix-0.6.3.tar.bz2%2Fdownload;" vertex="1" parent="1">
          <mxGeometry x="280" y="430" width="40" height="20" as="geometry" />
        </mxCell>
        <mxCell id="B0bD8EdGupErsyKpo4uQ-50" value="HEADER" style="rounded=0;whiteSpace=wrap;html=1;fillColor=#f8cecc;strokeColor=#b85450;fontFamily=latex;fontSource=http%3A%2F%2Fsourceforge.net%2Fprojects%2Fcm-unicode%2Ffiles%2FOldFiles%2Fcm-unicode-fix-0.6.3.tar.bz2%2Fdownload;" vertex="1" parent="1">
          <mxGeometry x="280" y="410" width="80" height="20" as="geometry" />
        </mxCell>
        <mxCell id="B0bD8EdGupErsyKpo4uQ-51" value="DATA" style="rounded=0;whiteSpace=wrap;html=1;fillColor=#e1d5e7;strokeColor=#9673a6;fontFamily=latex;fontSource=http%3A%2F%2Fsourceforge.net%2Fprojects%2Fcm-unicode%2Ffiles%2FOldFiles%2Fcm-unicode-fix-0.6.3.tar.bz2%2Fdownload;" vertex="1" parent="1">
          <mxGeometry x="360" y="390" width="420" height="20" as="geometry" />
        </mxCell>
        <mxCell id="B0bD8EdGupErsyKpo4uQ-52" value="5" style="rounded=0;whiteSpace=wrap;html=1;fillColor=#d5e8d4;strokeColor=#82b366;fontFamily=latex;fontSource=http%3A%2F%2Fsourceforge.net%2Fprojects%2Fcm-unicode%2Ffiles%2FOldFiles%2Fcm-unicode-fix-0.6.3.tar.bz2%2Fdownload;" vertex="1" parent="1">
          <mxGeometry x="380" y="430" width="20" height="20" as="geometry" />
        </mxCell>
        <mxCell id="B0bD8EdGupErsyKpo4uQ-53" value="5" style="rounded=0;whiteSpace=wrap;html=1;fillColor=#ffe6cc;strokeColor=#d79b00;fontFamily=latex;fontSource=http%3A%2F%2Fsourceforge.net%2Fprojects%2Fcm-unicode%2Ffiles%2FOldFiles%2Fcm-unicode-fix-0.6.3.tar.bz2%2Fdownload;" vertex="1" parent="1">
          <mxGeometry x="400" y="430" width="20" height="20" as="geometry" />
        </mxCell>
        <mxCell id="B0bD8EdGupErsyKpo4uQ-54" value="0" style="rounded=0;whiteSpace=wrap;html=1;fillColor=#d5e8d4;strokeColor=#82b366;fontFamily=latex;fontSource=http%3A%2F%2Fsourceforge.net%2Fprojects%2Fcm-unicode%2Ffiles%2FOldFiles%2Fcm-unicode-fix-0.6.3.tar.bz2%2Fdownload;fontStyle=1" vertex="1" parent="1">
          <mxGeometry x="360" y="430" width="20" height="20" as="geometry" />
        </mxCell>
        <mxCell id="B0bD8EdGupErsyKpo4uQ-55" value="3" style="rounded=0;whiteSpace=wrap;html=1;fillColor=#ffe6cc;strokeColor=#d79b00;fontFamily=latex;fontSource=http%3A%2F%2Fsourceforge.net%2Fprojects%2Fcm-unicode%2Ffiles%2FOldFiles%2Fcm-unicode-fix-0.6.3.tar.bz2%2Fdownload;" vertex="1" parent="1">
          <mxGeometry x="420" y="430" width="20" height="20" as="geometry" />
        </mxCell>
        <mxCell id="B0bD8EdGupErsyKpo4uQ-56" value="4" style="rounded=0;whiteSpace=wrap;html=1;fillColor=#ffe6cc;strokeColor=#d79b00;fontFamily=latex;fontSource=http%3A%2F%2Fsourceforge.net%2Fprojects%2Fcm-unicode%2Ffiles%2FOldFiles%2Fcm-unicode-fix-0.6.3.tar.bz2%2Fdownload;" vertex="1" parent="1">
          <mxGeometry x="440" y="430" width="20" height="20" as="geometry" />
        </mxCell>
        <mxCell id="B0bD8EdGupErsyKpo4uQ-57" value="1" style="rounded=0;whiteSpace=wrap;html=1;fillColor=#ffe6cc;strokeColor=#d79b00;fontFamily=latex;fontSource=http%3A%2F%2Fsourceforge.net%2Fprojects%2Fcm-unicode%2Ffiles%2FOldFiles%2Fcm-unicode-fix-0.6.3.tar.bz2%2Fdownload;" vertex="1" parent="1">
          <mxGeometry x="460" y="430" width="20" height="20" as="geometry" />
        </mxCell>
        <mxCell id="B0bD8EdGupErsyKpo4uQ-58" value="2" style="rounded=0;whiteSpace=wrap;html=1;fillColor=#ffe6cc;strokeColor=#d79b00;fontFamily=latex;fontSource=http%3A%2F%2Fsourceforge.net%2Fprojects%2Fcm-unicode%2Ffiles%2FOldFiles%2Fcm-unicode-fix-0.6.3.tar.bz2%2Fdownload;" vertex="1" parent="1">
          <mxGeometry x="480" y="430" width="20" height="20" as="geometry" />
        </mxCell>
        <mxCell id="B0bD8EdGupErsyKpo4uQ-59" value="SINGLE VERTEX" style="rounded=0;whiteSpace=wrap;html=1;fillColor=#fff2cc;strokeColor=#d6b656;fontFamily=latex;fontSource=http%3A%2F%2Fsourceforge.net%2Fprojects%2Fcm-unicode%2Ffiles%2FOldFiles%2Fcm-unicode-fix-0.6.3.tar.bz2%2Fdownload;" vertex="1" parent="1">
          <mxGeometry x="360" y="410" width="140" height="20" as="geometry" />
        </mxCell>
        <mxCell id="B0bD8EdGupErsyKpo4uQ-60" value="5" style="rounded=0;whiteSpace=wrap;html=1;fillColor=#d5e8d4;strokeColor=#82b366;fontFamily=latex;fontSource=http%3A%2F%2Fsourceforge.net%2Fprojects%2Fcm-unicode%2Ffiles%2FOldFiles%2Fcm-unicode-fix-0.6.3.tar.bz2%2Fdownload;" vertex="1" parent="1">
          <mxGeometry x="520" y="430" width="20" height="20" as="geometry" />
        </mxCell>
        <mxCell id="B0bD8EdGupErsyKpo4uQ-61" value="0" style="rounded=0;whiteSpace=wrap;html=1;fillColor=#ffe6cc;strokeColor=#d79b00;fontFamily=latex;fontSource=http%3A%2F%2Fsourceforge.net%2Fprojects%2Fcm-unicode%2Ffiles%2FOldFiles%2Fcm-unicode-fix-0.6.3.tar.bz2%2Fdownload;" vertex="1" parent="1">
          <mxGeometry x="540" y="430" width="20" height="20" as="geometry" />
        </mxCell>
        <mxCell id="B0bD8EdGupErsyKpo4uQ-62" value="2" style="rounded=0;whiteSpace=wrap;html=1;fillColor=#d5e8d4;strokeColor=#82b366;fontFamily=latex;fontSource=http%3A%2F%2Fsourceforge.net%2Fprojects%2Fcm-unicode%2Ffiles%2FOldFiles%2Fcm-unicode-fix-0.6.3.tar.bz2%2Fdownload;fontStyle=1" vertex="1" parent="1">
          <mxGeometry x="500" y="430" width="20" height="20" as="geometry" />
        </mxCell>
        <mxCell id="B0bD8EdGupErsyKpo4uQ-63" value="3" style="rounded=0;whiteSpace=wrap;html=1;fillColor=#ffe6cc;strokeColor=#d79b00;fontFamily=latex;fontSource=http%3A%2F%2Fsourceforge.net%2Fprojects%2Fcm-unicode%2Ffiles%2FOldFiles%2Fcm-unicode-fix-0.6.3.tar.bz2%2Fdownload;" vertex="1" parent="1">
          <mxGeometry x="560" y="430" width="20" height="20" as="geometry" />
        </mxCell>
        <mxCell id="B0bD8EdGupErsyKpo4uQ-64" value="4" style="rounded=0;whiteSpace=wrap;html=1;fillColor=#ffe6cc;strokeColor=#d79b00;fontFamily=latex;fontSource=http%3A%2F%2Fsourceforge.net%2Fprojects%2Fcm-unicode%2Ffiles%2FOldFiles%2Fcm-unicode-fix-0.6.3.tar.bz2%2Fdownload;" vertex="1" parent="1">
          <mxGeometry x="580" y="430" width="20" height="20" as="geometry" />
        </mxCell>
        <mxCell id="B0bD8EdGupErsyKpo4uQ-65" value="5" style="rounded=0;whiteSpace=wrap;html=1;fillColor=#ffe6cc;strokeColor=#d79b00;fontFamily=latex;fontSource=http%3A%2F%2Fsourceforge.net%2Fprojects%2Fcm-unicode%2Ffiles%2FOldFiles%2Fcm-unicode-fix-0.6.3.tar.bz2%2Fdownload;" vertex="1" parent="1">
          <mxGeometry x="600" y="430" width="20" height="20" as="geometry" />
        </mxCell>
        <mxCell id="B0bD8EdGupErsyKpo4uQ-66" value="1" style="rounded=0;whiteSpace=wrap;html=1;fillColor=#ffe6cc;strokeColor=#d79b00;fontFamily=latex;fontSource=http%3A%2F%2Fsourceforge.net%2Fprojects%2Fcm-unicode%2Ffiles%2FOldFiles%2Fcm-unicode-fix-0.6.3.tar.bz2%2Fdownload;" vertex="1" parent="1">
          <mxGeometry x="620" y="430" width="20" height="20" as="geometry" />
        </mxCell>
        <mxCell id="B0bD8EdGupErsyKpo4uQ-77" value="SINGLE VERTEX" style="rounded=0;whiteSpace=wrap;html=1;fillColor=#fff2cc;strokeColor=#d6b656;fontFamily=latex;fontSource=http%3A%2F%2Fsourceforge.net%2Fprojects%2Fcm-unicode%2Ffiles%2FOldFiles%2Fcm-unicode-fix-0.6.3.tar.bz2%2Fdownload;" vertex="1" parent="1">
          <mxGeometry x="500" y="410" width="140" height="20" as="geometry" />
        </mxCell>
        <mxCell id="B0bD8EdGupErsyKpo4uQ-79" value="5" style="rounded=0;whiteSpace=wrap;html=1;fillColor=#d5e8d4;strokeColor=#82b366;fontFamily=latex;fontSource=http%3A%2F%2Fsourceforge.net%2Fprojects%2Fcm-unicode%2Ffiles%2FOldFiles%2Fcm-unicode-fix-0.6.3.tar.bz2%2Fdownload;" vertex="1" parent="1">
          <mxGeometry x="660" y="430" width="20" height="20" as="geometry" />
        </mxCell>
        <mxCell id="B0bD8EdGupErsyKpo4uQ-80" value="0" style="rounded=0;whiteSpace=wrap;html=1;fillColor=#ffe6cc;strokeColor=#d79b00;fontFamily=latex;fontSource=http%3A%2F%2Fsourceforge.net%2Fprojects%2Fcm-unicode%2Ffiles%2FOldFiles%2Fcm-unicode-fix-0.6.3.tar.bz2%2Fdownload;" vertex="1" parent="1">
          <mxGeometry x="680" y="430" width="20" height="20" as="geometry" />
        </mxCell>
        <mxCell id="B0bD8EdGupErsyKpo4uQ-81" value="4" style="rounded=0;whiteSpace=wrap;html=1;fillColor=#d5e8d4;strokeColor=#82b366;fontFamily=latex;fontSource=http%3A%2F%2Fsourceforge.net%2Fprojects%2Fcm-unicode%2Ffiles%2FOldFiles%2Fcm-unicode-fix-0.6.3.tar.bz2%2Fdownload;fontStyle=1" vertex="1" parent="1">
          <mxGeometry x="640" y="430" width="20" height="20" as="geometry" />
        </mxCell>
        <mxCell id="B0bD8EdGupErsyKpo4uQ-82" value="5" style="rounded=0;whiteSpace=wrap;html=1;fillColor=#ffe6cc;strokeColor=#d79b00;fontFamily=latex;fontSource=http%3A%2F%2Fsourceforge.net%2Fprojects%2Fcm-unicode%2Ffiles%2FOldFiles%2Fcm-unicode-fix-0.6.3.tar.bz2%2Fdownload;" vertex="1" parent="1">
          <mxGeometry x="700" y="430" width="20" height="20" as="geometry" />
        </mxCell>
        <mxCell id="B0bD8EdGupErsyKpo4uQ-83" value="1" style="rounded=0;whiteSpace=wrap;html=1;fillColor=#ffe6cc;strokeColor=#d79b00;fontFamily=latex;fontSource=http%3A%2F%2Fsourceforge.net%2Fprojects%2Fcm-unicode%2Ffiles%2FOldFiles%2Fcm-unicode-fix-0.6.3.tar.bz2%2Fdownload;" vertex="1" parent="1">
          <mxGeometry x="720" y="430" width="20" height="20" as="geometry" />
        </mxCell>
        <mxCell id="B0bD8EdGupErsyKpo4uQ-84" value="2" style="rounded=0;whiteSpace=wrap;html=1;fillColor=#ffe6cc;strokeColor=#d79b00;fontFamily=latex;fontSource=http%3A%2F%2Fsourceforge.net%2Fprojects%2Fcm-unicode%2Ffiles%2FOldFiles%2Fcm-unicode-fix-0.6.3.tar.bz2%2Fdownload;" vertex="1" parent="1">
          <mxGeometry x="740" y="430" width="20" height="20" as="geometry" />
        </mxCell>
        <mxCell id="B0bD8EdGupErsyKpo4uQ-85" value="3" style="rounded=0;whiteSpace=wrap;html=1;fillColor=#ffe6cc;strokeColor=#d79b00;fontFamily=latex;fontSource=http%3A%2F%2Fsourceforge.net%2Fprojects%2Fcm-unicode%2Ffiles%2FOldFiles%2Fcm-unicode-fix-0.6.3.tar.bz2%2Fdownload;" vertex="1" parent="1">
          <mxGeometry x="760" y="430" width="20" height="20" as="geometry" />
        </mxCell>
        <mxCell id="B0bD8EdGupErsyKpo4uQ-86" value="SINGLE VERTEX" style="rounded=0;whiteSpace=wrap;html=1;fillColor=#fff2cc;strokeColor=#d6b656;fontFamily=latex;fontSource=http%3A%2F%2Fsourceforge.net%2Fprojects%2Fcm-unicode%2Ffiles%2FOldFiles%2Fcm-unicode-fix-0.6.3.tar.bz2%2Fdownload;" vertex="1" parent="1">
          <mxGeometry x="640" y="410" width="140" height="20" as="geometry" />
        </mxCell>
        <mxCell id="B0bD8EdGupErsyKpo4uQ-87" value="6" style="rounded=0;whiteSpace=wrap;html=1;fillColor=#dae8fc;strokeColor=#6c8ebf;fontFamily=latex;fontSource=http%3A%2F%2Fsourceforge.net%2Fprojects%2Fcm-unicode%2Ffiles%2FOldFiles%2Fcm-unicode-fix-0.6.3.tar.bz2%2Fdownload;" vertex="1" parent="1">
          <mxGeometry x="320" y="530" width="20" height="20" as="geometry" />
        </mxCell>
        <mxCell id="B0bD8EdGupErsyKpo4uQ-88" value="3" style="rounded=0;whiteSpace=wrap;html=1;fillColor=#dae8fc;strokeColor=#6c8ebf;fontFamily=latex;fontSource=http%3A%2F%2Fsourceforge.net%2Fprojects%2Fcm-unicode%2Ffiles%2FOldFiles%2Fcm-unicode-fix-0.6.3.tar.bz2%2Fdownload;" vertex="1" parent="1">
          <mxGeometry x="340" y="530" width="20" height="20" as="geometry" />
        </mxCell>
        <mxCell id="B0bD8EdGupErsyKpo4uQ-89" value="19 x 4" style="rounded=0;whiteSpace=wrap;html=1;fillColor=#dae8fc;strokeColor=#6c8ebf;fontFamily=latex;fontSource=http%3A%2F%2Fsourceforge.net%2Fprojects%2Fcm-unicode%2Ffiles%2FOldFiles%2Fcm-unicode-fix-0.6.3.tar.bz2%2Fdownload;" vertex="1" parent="1">
          <mxGeometry x="280" y="530" width="40" height="20" as="geometry" />
        </mxCell>
        <mxCell id="B0bD8EdGupErsyKpo4uQ-90" value="HEADER" style="rounded=0;whiteSpace=wrap;html=1;fillColor=#f8cecc;strokeColor=#b85450;fontFamily=latex;fontSource=http%3A%2F%2Fsourceforge.net%2Fprojects%2Fcm-unicode%2Ffiles%2FOldFiles%2Fcm-unicode-fix-0.6.3.tar.bz2%2Fdownload;" vertex="1" parent="1">
          <mxGeometry x="280" y="510" width="80" height="20" as="geometry" />
        </mxCell>
        <mxCell id="B0bD8EdGupErsyKpo4uQ-91" value="DATA" style="rounded=0;whiteSpace=wrap;html=1;fillColor=#e1d5e7;strokeColor=#9673a6;fontFamily=latex;fontSource=http%3A%2F%2Fsourceforge.net%2Fprojects%2Fcm-unicode%2Ffiles%2FOldFiles%2Fcm-unicode-fix-0.6.3.tar.bz2%2Fdownload;" vertex="1" parent="1">
          <mxGeometry x="360" y="490" width="340" height="20" as="geometry" />
        </mxCell>
        <mxCell id="B0bD8EdGupErsyKpo4uQ-92" value="4" style="rounded=0;whiteSpace=wrap;html=1;fillColor=#d5e8d4;strokeColor=#82b366;fontFamily=latex;fontSource=http%3A%2F%2Fsourceforge.net%2Fprojects%2Fcm-unicode%2Ffiles%2FOldFiles%2Fcm-unicode-fix-0.6.3.tar.bz2%2Fdownload;" vertex="1" parent="1">
          <mxGeometry x="380" y="530" width="20" height="20" as="geometry" />
        </mxCell>
        <mxCell id="B0bD8EdGupErsyKpo4uQ-93" value="2" style="rounded=0;whiteSpace=wrap;html=1;fillColor=#ffe6cc;strokeColor=#d79b00;fontFamily=latex;fontSource=http%3A%2F%2Fsourceforge.net%2Fprojects%2Fcm-unicode%2Ffiles%2FOldFiles%2Fcm-unicode-fix-0.6.3.tar.bz2%2Fdownload;" vertex="1" parent="1">
          <mxGeometry x="400" y="530" width="20" height="20" as="geometry" />
        </mxCell>
        <mxCell id="B0bD8EdGupErsyKpo4uQ-94" value="1" style="rounded=0;whiteSpace=wrap;html=1;fillColor=#d5e8d4;strokeColor=#82b366;fontFamily=latex;fontSource=http%3A%2F%2Fsourceforge.net%2Fprojects%2Fcm-unicode%2Ffiles%2FOldFiles%2Fcm-unicode-fix-0.6.3.tar.bz2%2Fdownload;fontStyle=2" vertex="1" parent="1">
          <mxGeometry x="360" y="530" width="20" height="20" as="geometry" />
        </mxCell>
        <mxCell id="B0bD8EdGupErsyKpo4uQ-95" value="5" style="rounded=0;whiteSpace=wrap;html=1;fillColor=#ffe6cc;strokeColor=#d79b00;fontFamily=latex;fontSource=http%3A%2F%2Fsourceforge.net%2Fprojects%2Fcm-unicode%2Ffiles%2FOldFiles%2Fcm-unicode-fix-0.6.3.tar.bz2%2Fdownload;" vertex="1" parent="1">
          <mxGeometry x="420" y="530" width="20" height="20" as="geometry" />
        </mxCell>
        <mxCell id="B0bD8EdGupErsyKpo4uQ-96" value="4" style="rounded=0;whiteSpace=wrap;html=1;fillColor=#ffe6cc;strokeColor=#d79b00;fontFamily=latex;fontSource=http%3A%2F%2Fsourceforge.net%2Fprojects%2Fcm-unicode%2Ffiles%2FOldFiles%2Fcm-unicode-fix-0.6.3.tar.bz2%2Fdownload;" vertex="1" parent="1">
          <mxGeometry x="440" y="530" width="20" height="20" as="geometry" />
        </mxCell>
        <mxCell id="B0bD8EdGupErsyKpo4uQ-97" value="0" style="rounded=0;whiteSpace=wrap;html=1;fillColor=#ffe6cc;strokeColor=#d79b00;fontFamily=latex;fontSource=http%3A%2F%2Fsourceforge.net%2Fprojects%2Fcm-unicode%2Ffiles%2FOldFiles%2Fcm-unicode-fix-0.6.3.tar.bz2%2Fdownload;" vertex="1" parent="1">
          <mxGeometry x="460" y="530" width="20" height="20" as="geometry" />
        </mxCell>
        <mxCell id="B0bD8EdGupErsyKpo4uQ-99" value="SINGLE VERTEX" style="rounded=0;whiteSpace=wrap;html=1;fillColor=#fff2cc;strokeColor=#d6b656;fontFamily=latex;fontSource=http%3A%2F%2Fsourceforge.net%2Fprojects%2Fcm-unicode%2Ffiles%2FOldFiles%2Fcm-unicode-fix-0.6.3.tar.bz2%2Fdownload;" vertex="1" parent="1">
          <mxGeometry x="360" y="510" width="120" height="20" as="geometry" />
        </mxCell>
        <mxCell id="B0bD8EdGupErsyKpo4uQ-100" value="3" style="rounded=0;whiteSpace=wrap;html=1;fillColor=#d5e8d4;strokeColor=#82b366;fontFamily=latex;fontSource=http%3A%2F%2Fsourceforge.net%2Fprojects%2Fcm-unicode%2Ffiles%2FOldFiles%2Fcm-unicode-fix-0.6.3.tar.bz2%2Fdownload;" vertex="1" parent="1">
          <mxGeometry x="500" y="530" width="20" height="20" as="geometry" />
        </mxCell>
        <mxCell id="B0bD8EdGupErsyKpo4uQ-101" value="5" style="rounded=0;whiteSpace=wrap;html=1;fillColor=#ffe6cc;strokeColor=#d79b00;fontFamily=latex;fontSource=http%3A%2F%2Fsourceforge.net%2Fprojects%2Fcm-unicode%2Ffiles%2FOldFiles%2Fcm-unicode-fix-0.6.3.tar.bz2%2Fdownload;" vertex="1" parent="1">
          <mxGeometry x="520" y="530" width="20" height="20" as="geometry" />
        </mxCell>
        <mxCell id="B0bD8EdGupErsyKpo4uQ-102" value="3" style="rounded=0;whiteSpace=wrap;html=1;fillColor=#d5e8d4;strokeColor=#82b366;fontFamily=latex;fontSource=http%3A%2F%2Fsourceforge.net%2Fprojects%2Fcm-unicode%2Ffiles%2FOldFiles%2Fcm-unicode-fix-0.6.3.tar.bz2%2Fdownload;fontStyle=2" vertex="1" parent="1">
          <mxGeometry x="480" y="530" width="20" height="20" as="geometry" />
        </mxCell>
        <mxCell id="B0bD8EdGupErsyKpo4uQ-103" value="2" style="rounded=0;whiteSpace=wrap;html=1;fillColor=#ffe6cc;strokeColor=#d79b00;fontFamily=latex;fontSource=http%3A%2F%2Fsourceforge.net%2Fprojects%2Fcm-unicode%2Ffiles%2FOldFiles%2Fcm-unicode-fix-0.6.3.tar.bz2%2Fdownload;" vertex="1" parent="1">
          <mxGeometry x="540" y="530" width="20" height="20" as="geometry" />
        </mxCell>
        <mxCell id="B0bD8EdGupErsyKpo4uQ-104" value="1" style="rounded=0;whiteSpace=wrap;html=1;fillColor=#ffe6cc;strokeColor=#d79b00;fontFamily=latex;fontSource=http%3A%2F%2Fsourceforge.net%2Fprojects%2Fcm-unicode%2Ffiles%2FOldFiles%2Fcm-unicode-fix-0.6.3.tar.bz2%2Fdownload;" vertex="1" parent="1">
          <mxGeometry x="560" y="530" width="20" height="20" as="geometry" />
        </mxCell>
        <mxCell id="B0bD8EdGupErsyKpo4uQ-107" value="SINGLE VERTEX" style="rounded=0;whiteSpace=wrap;html=1;fillColor=#fff2cc;strokeColor=#d6b656;fontFamily=latex;fontSource=http%3A%2F%2Fsourceforge.net%2Fprojects%2Fcm-unicode%2Ffiles%2FOldFiles%2Fcm-unicode-fix-0.6.3.tar.bz2%2Fdownload;" vertex="1" parent="1">
          <mxGeometry x="480" y="510" width="100" height="20" as="geometry" />
        </mxCell>
        <mxCell id="B0bD8EdGupErsyKpo4uQ-108" value="4" style="rounded=0;whiteSpace=wrap;html=1;fillColor=#d5e8d4;strokeColor=#82b366;fontFamily=latex;fontSource=http%3A%2F%2Fsourceforge.net%2Fprojects%2Fcm-unicode%2Ffiles%2FOldFiles%2Fcm-unicode-fix-0.6.3.tar.bz2%2Fdownload;" vertex="1" parent="1">
          <mxGeometry x="600" y="530" width="20" height="20" as="geometry" />
        </mxCell>
        <mxCell id="B0bD8EdGupErsyKpo4uQ-109" value="3" style="rounded=0;whiteSpace=wrap;html=1;fillColor=#ffe6cc;strokeColor=#d79b00;fontFamily=latex;fontSource=http%3A%2F%2Fsourceforge.net%2Fprojects%2Fcm-unicode%2Ffiles%2FOldFiles%2Fcm-unicode-fix-0.6.3.tar.bz2%2Fdownload;" vertex="1" parent="1">
          <mxGeometry x="620" y="530" width="20" height="20" as="geometry" />
        </mxCell>
        <mxCell id="B0bD8EdGupErsyKpo4uQ-110" value="5" style="rounded=0;whiteSpace=wrap;html=1;fillColor=#d5e8d4;strokeColor=#82b366;fontFamily=latex;fontSource=http%3A%2F%2Fsourceforge.net%2Fprojects%2Fcm-unicode%2Ffiles%2FOldFiles%2Fcm-unicode-fix-0.6.3.tar.bz2%2Fdownload;fontStyle=2" vertex="1" parent="1">
          <mxGeometry x="580" y="530" width="20" height="20" as="geometry" />
        </mxCell>
        <mxCell id="B0bD8EdGupErsyKpo4uQ-111" value="1" style="rounded=0;whiteSpace=wrap;html=1;fillColor=#ffe6cc;strokeColor=#d79b00;fontFamily=latex;fontSource=http%3A%2F%2Fsourceforge.net%2Fprojects%2Fcm-unicode%2Ffiles%2FOldFiles%2Fcm-unicode-fix-0.6.3.tar.bz2%2Fdownload;" vertex="1" parent="1">
          <mxGeometry x="640" y="530" width="20" height="20" as="geometry" />
        </mxCell>
        <mxCell id="B0bD8EdGupErsyKpo4uQ-112" value="2" style="rounded=0;whiteSpace=wrap;html=1;fillColor=#ffe6cc;strokeColor=#d79b00;fontFamily=latex;fontSource=http%3A%2F%2Fsourceforge.net%2Fprojects%2Fcm-unicode%2Ffiles%2FOldFiles%2Fcm-unicode-fix-0.6.3.tar.bz2%2Fdownload;" vertex="1" parent="1">
          <mxGeometry x="660" y="530" width="20" height="20" as="geometry" />
        </mxCell>
        <mxCell id="B0bD8EdGupErsyKpo4uQ-113" value="4" style="rounded=0;whiteSpace=wrap;html=1;fillColor=#ffe6cc;strokeColor=#d79b00;fontFamily=latex;fontSource=http%3A%2F%2Fsourceforge.net%2Fprojects%2Fcm-unicode%2Ffiles%2FOldFiles%2Fcm-unicode-fix-0.6.3.tar.bz2%2Fdownload;" vertex="1" parent="1">
          <mxGeometry x="680" y="530" width="20" height="20" as="geometry" />
        </mxCell>
        <mxCell id="B0bD8EdGupErsyKpo4uQ-115" value="SINGLE VERTEX" style="rounded=0;whiteSpace=wrap;html=1;fillColor=#fff2cc;strokeColor=#d6b656;fontFamily=latex;fontSource=http%3A%2F%2Fsourceforge.net%2Fprojects%2Fcm-unicode%2Ffiles%2FOldFiles%2Fcm-unicode-fix-0.6.3.tar.bz2%2Fdownload;" vertex="1" parent="1">
          <mxGeometry x="580" y="510" width="120" height="20" as="geometry" />
        </mxCell>
        <mxCell id="B0bD8EdGupErsyKpo4uQ-117" value="" style="group;fontFamily=latex;fontSource=http%3A%2F%2Fsourceforge.net%2Fprojects%2Fcm-unicode%2Ffiles%2FOldFiles%2Fcm-unicode-fix-0.6.3.tar.bz2%2Fdownload;" vertex="1" connectable="0" parent="1">
          <mxGeometry x="80" y="360" width="200" height="150" as="geometry" />
        </mxCell>
        <mxCell id="B0bD8EdGupErsyKpo4uQ-33" value="&lt;div style=&quot;margin-left: 2em; font-size: 13px; background-color: rgb(255, 255, 255);&quot; class=&quot;data&quot;&gt;0 -&amp;gt; 5, 3, 4, 1, 2&lt;/div&gt;" style="text;html=1;align=left;verticalAlign=middle;whiteSpace=wrap;rounded=0;fontStyle=1;fontFamily=latex;fontSource=http%3A%2F%2Fsourceforge.net%2Fprojects%2Fcm-unicode%2Ffiles%2FOldFiles%2Fcm-unicode-fix-0.6.3.tar.bz2%2Fdownload;" vertex="1" parent="B0bD8EdGupErsyKpo4uQ-117">
          <mxGeometry y="30" width="200" height="20" as="geometry" />
        </mxCell>
        <mxCell id="B0bD8EdGupErsyKpo4uQ-35" value="&lt;div style=&quot;margin-left: 2em; font-size: 13px; background-color: rgb(255, 255, 255);&quot; class=&quot;data&quot;&gt;1 -&amp;gt; 2, 5, 4, 0&lt;/div&gt;" style="text;html=1;align=left;verticalAlign=middle;whiteSpace=wrap;rounded=0;fontStyle=2;fontFamily=latex;fontSource=http%3A%2F%2Fsourceforge.net%2Fprojects%2Fcm-unicode%2Ffiles%2FOldFiles%2Fcm-unicode-fix-0.6.3.tar.bz2%2Fdownload;" vertex="1" parent="B0bD8EdGupErsyKpo4uQ-117">
          <mxGeometry y="50" width="200" height="20" as="geometry" />
        </mxCell>
        <mxCell id="B0bD8EdGupErsyKpo4uQ-36" value="&lt;div style=&quot;margin-left: 2em; font-size: 13px; background-color: rgb(255, 255, 255);&quot; class=&quot;data&quot;&gt;2 -&amp;gt; 0, 3, 4, 5, 1&lt;/div&gt;" style="text;html=1;align=left;verticalAlign=middle;whiteSpace=wrap;rounded=0;fontStyle=1;fontFamily=latex;fontSource=http%3A%2F%2Fsourceforge.net%2Fprojects%2Fcm-unicode%2Ffiles%2FOldFiles%2Fcm-unicode-fix-0.6.3.tar.bz2%2Fdownload;" vertex="1" parent="B0bD8EdGupErsyKpo4uQ-117">
          <mxGeometry y="70" width="200" height="20" as="geometry" />
        </mxCell>
        <mxCell id="B0bD8EdGupErsyKpo4uQ-37" value="&lt;div style=&quot;margin-left: 2em; font-size: 13px; background-color: rgb(255, 255, 255);&quot; class=&quot;data&quot;&gt;3 -&amp;gt; 5, 2, 1&lt;/div&gt;" style="text;html=1;align=left;verticalAlign=middle;whiteSpace=wrap;rounded=0;fontStyle=2;fontFamily=latex;fontSource=http%3A%2F%2Fsourceforge.net%2Fprojects%2Fcm-unicode%2Ffiles%2FOldFiles%2Fcm-unicode-fix-0.6.3.tar.bz2%2Fdownload;" vertex="1" parent="B0bD8EdGupErsyKpo4uQ-117">
          <mxGeometry y="90" width="200" height="20" as="geometry" />
        </mxCell>
        <mxCell id="B0bD8EdGupErsyKpo4uQ-38" value="&lt;div style=&quot;margin-left: 2em; font-size: 13px; background-color: rgb(255, 255, 255);&quot; class=&quot;data&quot;&gt;4 -&amp;gt; 0, 5, 1, 2, 3&lt;/div&gt;" style="text;html=1;align=left;verticalAlign=middle;whiteSpace=wrap;rounded=0;fontStyle=1;fontFamily=latex;fontSource=http%3A%2F%2Fsourceforge.net%2Fprojects%2Fcm-unicode%2Ffiles%2FOldFiles%2Fcm-unicode-fix-0.6.3.tar.bz2%2Fdownload;" vertex="1" parent="B0bD8EdGupErsyKpo4uQ-117">
          <mxGeometry y="110" width="200" height="20" as="geometry" />
        </mxCell>
        <mxCell id="B0bD8EdGupErsyKpo4uQ-39" value="&lt;div style=&quot;margin-left: 2em; font-size: 13px; background-color: rgb(255, 255, 255);&quot; class=&quot;data&quot;&gt;5 -&amp;gt; 3, 1, 2, 4&lt;/div&gt;" style="text;html=1;align=left;verticalAlign=middle;whiteSpace=wrap;rounded=0;fontStyle=2;fontFamily=latex;fontSource=http%3A%2F%2Fsourceforge.net%2Fprojects%2Fcm-unicode%2Ffiles%2FOldFiles%2Fcm-unicode-fix-0.6.3.tar.bz2%2Fdownload;" vertex="1" parent="B0bD8EdGupErsyKpo4uQ-117">
          <mxGeometry y="130" width="200" height="20" as="geometry" />
        </mxCell>
        <mxCell id="B0bD8EdGupErsyKpo4uQ-116" value="Global graph" style="text;html=1;align=center;verticalAlign=middle;whiteSpace=wrap;rounded=0;fontSize=15;fontStyle=0;fontFamily=latex;fontSource=http%3A%2F%2Fsourceforge.net%2Fprojects%2Fcm-unicode%2Ffiles%2FOldFiles%2Fcm-unicode-fix-0.6.3.tar.bz2%2Fdownload;" vertex="1" parent="B0bD8EdGupErsyKpo4uQ-117">
          <mxGeometry x="20" width="100" height="30" as="geometry" />
        </mxCell>
        <mxCell id="B0bD8EdGupErsyKpo4uQ-118" value="Worker 0 partial graph data" style="text;html=1;align=center;verticalAlign=middle;whiteSpace=wrap;rounded=0;fillColor=#f5f5f5;fontColor=#333333;strokeColor=#666666;fontFamily=latex;fontSource=http%3A%2F%2Fsourceforge.net%2Fprojects%2Fcm-unicode%2Ffiles%2FOldFiles%2Fcm-unicode-fix-0.6.3.tar.bz2%2Fdownload;" vertex="1" parent="1">
          <mxGeometry x="280" y="370" width="500" height="20" as="geometry" />
        </mxCell>
        <mxCell id="B0bD8EdGupErsyKpo4uQ-119" value="Worker 1 partial graph data" style="text;html=1;align=center;verticalAlign=middle;whiteSpace=wrap;rounded=0;fillColor=#f5f5f5;fontColor=#333333;strokeColor=#666666;fontFamily=latex;fontSource=http%3A%2F%2Fsourceforge.net%2Fprojects%2Fcm-unicode%2Ffiles%2FOldFiles%2Fcm-unicode-fix-0.6.3.tar.bz2%2Fdownload;" vertex="1" parent="1">
          <mxGeometry x="280" y="470" width="420" height="20" as="geometry" />
        </mxCell>
        <mxCell id="B0bD8EdGupErsyKpo4uQ-120" value="" style="group;fontFamily=latex;fontSource=http%3A%2F%2Fsourceforge.net%2Fprojects%2Fcm-unicode%2Ffiles%2FOldFiles%2Fcm-unicode-fix-0.6.3.tar.bz2%2Fdownload;" vertex="1" connectable="0" parent="1">
          <mxGeometry x="80" y="80" width="530" height="230" as="geometry" />
        </mxCell>
        <mxCell id="B0bD8EdGupErsyKpo4uQ-9" value="Vertex index&lt;br&gt;size: 4B" style="rounded=0;whiteSpace=wrap;html=1;fillColor=#d5e8d4;strokeColor=#82b366;fontFamily=latex;fontSource=http%3A%2F%2Fsourceforge.net%2Fprojects%2Fcm-unicode%2Ffiles%2FOldFiles%2Fcm-unicode-fix-0.6.3.tar.bz2%2Fdownload;" vertex="1" parent="B0bD8EdGupErsyKpo4uQ-120">
          <mxGeometry x="80" y="180" width="80" height="50" as="geometry" />
        </mxCell>
        <mxCell id="B0bD8EdGupErsyKpo4uQ-10" value="Neighbor count&lt;div&gt;size: 4B&lt;/div&gt;" style="rounded=0;whiteSpace=wrap;html=1;fillColor=#d5e8d4;strokeColor=#82b366;fontFamily=latex;fontSource=http%3A%2F%2Fsourceforge.net%2Fprojects%2Fcm-unicode%2Ffiles%2FOldFiles%2Fcm-unicode-fix-0.6.3.tar.bz2%2Fdownload;" vertex="1" parent="B0bD8EdGupErsyKpo4uQ-120">
          <mxGeometry x="160" y="180" width="80" height="50" as="geometry" />
        </mxCell>
        <mxCell id="B0bD8EdGupErsyKpo4uQ-11" value="Neighbor 0&lt;div&gt;size: 4B&lt;/div&gt;" style="rounded=0;whiteSpace=wrap;html=1;fillColor=#ffe6cc;strokeColor=#d79b00;fontFamily=latex;fontSource=http%3A%2F%2Fsourceforge.net%2Fprojects%2Fcm-unicode%2Ffiles%2FOldFiles%2Fcm-unicode-fix-0.6.3.tar.bz2%2Fdownload;" vertex="1" parent="B0bD8EdGupErsyKpo4uQ-120">
          <mxGeometry x="240" y="180" width="80" height="50" as="geometry" />
        </mxCell>
        <mxCell id="B0bD8EdGupErsyKpo4uQ-12" value="Neighbor N&lt;div&gt;size: 4B&lt;/div&gt;" style="rounded=0;whiteSpace=wrap;html=1;fillColor=#ffe6cc;strokeColor=#d79b00;fontFamily=latex;fontSource=http%3A%2F%2Fsourceforge.net%2Fprojects%2Fcm-unicode%2Ffiles%2FOldFiles%2Fcm-unicode-fix-0.6.3.tar.bz2%2Fdownload;" vertex="1" parent="B0bD8EdGupErsyKpo4uQ-120">
          <mxGeometry x="360" y="180" width="80" height="50" as="geometry" />
        </mxCell>
        <mxCell id="B0bD8EdGupErsyKpo4uQ-13" value="" style="endArrow=none;dashed=1;html=1;dashPattern=1 3;strokeWidth=2;rounded=0;fontFamily=latex;fontSource=http%3A%2F%2Fsourceforge.net%2Fprojects%2Fcm-unicode%2Ffiles%2FOldFiles%2Fcm-unicode-fix-0.6.3.tar.bz2%2Fdownload;" edge="1" parent="B0bD8EdGupErsyKpo4uQ-120">
          <mxGeometry width="50" height="50" relative="1" as="geometry">
            <mxPoint x="320" y="205" as="sourcePoint" />
            <mxPoint x="360" y="205" as="targetPoint" />
          </mxGeometry>
        </mxCell>
        <mxCell id="B0bD8EdGupErsyKpo4uQ-21" value="SINGLE VERTEX DATA" style="rounded=0;whiteSpace=wrap;html=1;fillColor=#fff2cc;strokeColor=#d6b656;fontFamily=latex;fontSource=http%3A%2F%2Fsourceforge.net%2Fprojects%2Fcm-unicode%2Ffiles%2FOldFiles%2Fcm-unicode-fix-0.6.3.tar.bz2%2Fdownload;" vertex="1" parent="B0bD8EdGupErsyKpo4uQ-120">
          <mxGeometry x="80" y="160" width="360" height="20" as="geometry" />
        </mxCell>
        <mxCell id="B0bD8EdGupErsyKpo4uQ-22" value="SINGLE VERTEX DATA 0" style="rounded=0;whiteSpace=wrap;html=1;fillColor=#fff2cc;strokeColor=#d6b656;fontFamily=latex;fontSource=http%3A%2F%2Fsourceforge.net%2Fprojects%2Fcm-unicode%2Ffiles%2FOldFiles%2Fcm-unicode-fix-0.6.3.tar.bz2%2Fdownload;" vertex="1" parent="B0bD8EdGupErsyKpo4uQ-120">
          <mxGeometry x="180" y="100" width="160" height="20" as="geometry" />
        </mxCell>
        <mxCell id="B0bD8EdGupErsyKpo4uQ-23" value="SINGLE VERTEX DATA N" style="rounded=0;whiteSpace=wrap;html=1;fillColor=#fff2cc;strokeColor=#d6b656;fontFamily=latex;fontSource=http%3A%2F%2Fsourceforge.net%2Fprojects%2Fcm-unicode%2Ffiles%2FOldFiles%2Fcm-unicode-fix-0.6.3.tar.bz2%2Fdownload;" vertex="1" parent="B0bD8EdGupErsyKpo4uQ-120">
          <mxGeometry x="380" y="100" width="150" height="20" as="geometry" />
        </mxCell>
        <mxCell id="B0bD8EdGupErsyKpo4uQ-24" value="" style="endArrow=none;dashed=1;html=1;dashPattern=1 3;strokeWidth=2;rounded=0;fontFamily=latex;fontSource=http%3A%2F%2Fsourceforge.net%2Fprojects%2Fcm-unicode%2Ffiles%2FOldFiles%2Fcm-unicode-fix-0.6.3.tar.bz2%2Fdownload;" edge="1" parent="B0bD8EdGupErsyKpo4uQ-120">
          <mxGeometry width="50" height="50" relative="1" as="geometry">
            <mxPoint x="340" y="110" as="sourcePoint" />
            <mxPoint x="380" y="110" as="targetPoint" />
          </mxGeometry>
        </mxCell>
        <mxCell id="B0bD8EdGupErsyKpo4uQ-25" value="" style="endArrow=none;html=1;rounded=0;exitX=0;exitY=0;exitDx=0;exitDy=0;entryX=1;entryY=1;entryDx=0;entryDy=0;fontFamily=latex;fontSource=http%3A%2F%2Fsourceforge.net%2Fprojects%2Fcm-unicode%2Ffiles%2FOldFiles%2Fcm-unicode-fix-0.6.3.tar.bz2%2Fdownload;" edge="1" parent="B0bD8EdGupErsyKpo4uQ-120" source="B0bD8EdGupErsyKpo4uQ-22" target="B0bD8EdGupErsyKpo4uQ-3">
          <mxGeometry width="50" height="50" relative="1" as="geometry">
            <mxPoint x="240" y="120" as="sourcePoint" />
            <mxPoint x="290" y="70" as="targetPoint" />
          </mxGeometry>
        </mxCell>
        <mxCell id="B0bD8EdGupErsyKpo4uQ-26" value="" style="group;fillColor=#f8cecc;strokeColor=#b85450;fontFamily=latex;fontSource=http%3A%2F%2Fsourceforge.net%2Fprojects%2Fcm-unicode%2Ffiles%2FOldFiles%2Fcm-unicode-fix-0.6.3.tar.bz2%2Fdownload;" vertex="1" connectable="0" parent="B0bD8EdGupErsyKpo4uQ-120">
          <mxGeometry width="480" height="70" as="geometry" />
        </mxCell>
        <mxCell id="B0bD8EdGupErsyKpo4uQ-1" value="ByteLength&lt;br&gt;Excluding this&lt;div&gt;size: 4B&lt;/div&gt;" style="rounded=0;whiteSpace=wrap;html=1;fillColor=#dae8fc;strokeColor=#6c8ebf;fontFamily=latex;fontSource=http%3A%2F%2Fsourceforge.net%2Fprojects%2Fcm-unicode%2Ffiles%2FOldFiles%2Fcm-unicode-fix-0.6.3.tar.bz2%2Fdownload;" vertex="1" parent="B0bD8EdGupErsyKpo4uQ-26">
          <mxGeometry y="20" width="80" height="50" as="geometry" />
        </mxCell>
        <mxCell id="B0bD8EdGupErsyKpo4uQ-2" value="Global vertex count&lt;br&gt;size: 4B" style="rounded=0;whiteSpace=wrap;html=1;fillColor=#dae8fc;strokeColor=#6c8ebf;fontFamily=latex;fontSource=http%3A%2F%2Fsourceforge.net%2Fprojects%2Fcm-unicode%2Ffiles%2FOldFiles%2Fcm-unicode-fix-0.6.3.tar.bz2%2Fdownload;" vertex="1" parent="B0bD8EdGupErsyKpo4uQ-26">
          <mxGeometry x="80" y="20" width="80" height="50" as="geometry" />
        </mxCell>
        <mxCell id="B0bD8EdGupErsyKpo4uQ-3" value="Partial graph vertex count&lt;br&gt;size: 4B" style="rounded=0;whiteSpace=wrap;html=1;fillColor=#dae8fc;strokeColor=#6c8ebf;fontFamily=latex;fontSource=http%3A%2F%2Fsourceforge.net%2Fprojects%2Fcm-unicode%2Ffiles%2FOldFiles%2Fcm-unicode-fix-0.6.3.tar.bz2%2Fdownload;" vertex="1" parent="B0bD8EdGupErsyKpo4uQ-26">
          <mxGeometry x="160" y="20" width="80" height="50" as="geometry" />
        </mxCell>
        <mxCell id="B0bD8EdGupErsyKpo4uQ-4" value="Partial graph data" style="rounded=0;whiteSpace=wrap;html=1;fontFamily=latex;fontSource=http%3A%2F%2Fsourceforge.net%2Fprojects%2Fcm-unicode%2Ffiles%2FOldFiles%2Fcm-unicode-fix-0.6.3.tar.bz2%2Fdownload;" vertex="1" parent="B0bD8EdGupErsyKpo4uQ-26">
          <mxGeometry x="240" y="20" width="240" height="50" as="geometry" />
        </mxCell>
        <mxCell id="B0bD8EdGupErsyKpo4uQ-19" value="HEADER" style="rounded=0;whiteSpace=wrap;html=1;fillColor=#f8cecc;strokeColor=#b85450;fontFamily=latex;fontSource=http%3A%2F%2Fsourceforge.net%2Fprojects%2Fcm-unicode%2Ffiles%2FOldFiles%2Fcm-unicode-fix-0.6.3.tar.bz2%2Fdownload;" vertex="1" parent="B0bD8EdGupErsyKpo4uQ-26">
          <mxGeometry width="240" height="20" as="geometry" />
        </mxCell>
        <mxCell id="B0bD8EdGupErsyKpo4uQ-20" value="DATA" style="rounded=0;whiteSpace=wrap;html=1;fillColor=#e1d5e7;strokeColor=#9673a6;fontFamily=latex;fontSource=http%3A%2F%2Fsourceforge.net%2Fprojects%2Fcm-unicode%2Ffiles%2FOldFiles%2Fcm-unicode-fix-0.6.3.tar.bz2%2Fdownload;" vertex="1" parent="B0bD8EdGupErsyKpo4uQ-26">
          <mxGeometry x="240" width="240" height="20" as="geometry" />
        </mxCell>
        <mxCell id="B0bD8EdGupErsyKpo4uQ-27" value="" style="endArrow=none;html=1;rounded=0;entryX=1;entryY=1;entryDx=0;entryDy=0;exitX=1;exitY=0;exitDx=0;exitDy=0;fontFamily=latex;fontSource=http%3A%2F%2Fsourceforge.net%2Fprojects%2Fcm-unicode%2Ffiles%2FOldFiles%2Fcm-unicode-fix-0.6.3.tar.bz2%2Fdownload;" edge="1" parent="B0bD8EdGupErsyKpo4uQ-120" source="B0bD8EdGupErsyKpo4uQ-23" target="B0bD8EdGupErsyKpo4uQ-4">
          <mxGeometry width="50" height="50" relative="1" as="geometry">
            <mxPoint x="560" y="190" as="sourcePoint" />
            <mxPoint x="610" y="140" as="targetPoint" />
          </mxGeometry>
        </mxCell>
        <mxCell id="B0bD8EdGupErsyKpo4uQ-28" value="" style="endArrow=none;html=1;rounded=0;exitX=0;exitY=0;exitDx=0;exitDy=0;fontFamily=latex;fontSource=http%3A%2F%2Fsourceforge.net%2Fprojects%2Fcm-unicode%2Ffiles%2FOldFiles%2Fcm-unicode-fix-0.6.3.tar.bz2%2Fdownload;" edge="1" parent="B0bD8EdGupErsyKpo4uQ-120" source="B0bD8EdGupErsyKpo4uQ-21">
          <mxGeometry width="50" height="50" relative="1" as="geometry">
            <mxPoint x="130" y="170" as="sourcePoint" />
            <mxPoint x="180" y="120" as="targetPoint" />
          </mxGeometry>
        </mxCell>
        <mxCell id="B0bD8EdGupErsyKpo4uQ-29" value="" style="endArrow=none;html=1;rounded=0;entryX=1;entryY=1;entryDx=0;entryDy=0;exitX=1;exitY=0;exitDx=0;exitDy=0;fontFamily=latex;fontSource=http%3A%2F%2Fsourceforge.net%2Fprojects%2Fcm-unicode%2Ffiles%2FOldFiles%2Fcm-unicode-fix-0.6.3.tar.bz2%2Fdownload;" edge="1" parent="B0bD8EdGupErsyKpo4uQ-120" source="B0bD8EdGupErsyKpo4uQ-21" target="B0bD8EdGupErsyKpo4uQ-22">
          <mxGeometry width="50" height="50" relative="1" as="geometry">
            <mxPoint x="330" y="350" as="sourcePoint" />
            <mxPoint x="380" y="300" as="targetPoint" />
          </mxGeometry>
        </mxCell>
      </root>
    </mxGraphModel>
  </diagram>
</mxfile>
